<?xml version="1.0" standalone="no"?>
<!DOCTYPE svg PUBLIC "-//W3C//DTD SVG 20010904//EN"
 "http://www.w3.org/TR/2001/REC-SVG-20010904/DTD/svg10.dtd">
<svg version="1.0" xmlns="http://www.w3.org/2000/svg"
 width="250.000000pt" height="250.000000pt" viewBox="0 0 250.000000 250.000000"
 preserveAspectRatio="xMidYMid meet">

<g transform="translate(0.000000,250.000000) scale(0.100000,-0.100000)"
fill="#000000" stroke="none">
<path d="M1035 2375 c-228 -42 -457 -173 -614 -350 -128 -145 -197 -273 -258
-480 -38 -128 -38 -132 -37 -295 0 -91 5 -185 11 -209 10 -36 9 -48 -4 -67
-20 -32 -19 -235 3 -296 50 -141 161 -234 329 -274 39 -10 71 -18 73 -19 1 -1
-1 -10 -4 -20 -6 -15 -15 -17 -73 -11 -92 10 -192 47 -256 95 -62 47 -68 44
-26 -12 55 -72 117 -112 226 -148 39 -12 73 -26 76 -31 3 -5 74 -10 157 -11
84 -1 152 -4 152 -7 0 -8 -50 -28 -97 -40 -24 -5 -62 -15 -85 -22 -24 -6 -101
-11 -173 -12 -114 0 -137 2 -185 22 -30 13 -71 35 -90 50 l-35 26 26 -34 c33
-44 103 -92 177 -121 84 -32 248 -33 352 0 41 13 93 32 115 44 66 33 102 38
149 17 113 -48 335 -65 498 -38 85 14 64 30 -22 17 -151 -21 -376 -1 -510 47
-28 10 52 41 123 49 49 5 87 17 134 41 42 23 72 33 85 28 19 -6 19 -7 -8 -35
l-28 -29 207 0 208 0 69 -40 c177 -100 341 -141 485 -122 115 15 242 82 276
144 7 13 -4 9 -38 -12 -75 -46 -160 -64 -278 -57 -96 6 -258 41 -327 71 -31
14 -28 14 68 15 299 3 467 69 568 223 16 25 10 23 -48 -21 -82 -62 -168 -91
-293 -98 -90 -6 -93 -5 -93 16 0 17 6 21 35 21 109 0 256 62 329 140 26 28 62
81 79 118 27 58 32 80 35 167 3 81 1 108 -14 140 l-17 40 -9 -90 c-16 -173
-52 -265 -142 -362 -41 -45 -74 -68 -135 -97 -82 -38 -161 -57 -161 -39 0 16
26 34 36 25 5 -4 6 -3 2 2 -4 5 14 34 40 65 68 81 83 102 51 73 -14 -12 -28
-20 -31 -17 -3 3 -13 -6 -22 -20 -10 -15 -35 -44 -56 -65 l-40 -40 -321 2
-322 1 -19 -36 c-11 -23 -26 -37 -38 -37 -28 0 -33 16 -15 44 18 28 13 33 -32
31 -40 -3 -41 1 -7 28 52 41 80 91 76 136 -5 46 -17 54 -26 17 -10 -41 -101
-131 -158 -157 -51 -23 -64 -24 -312 -27 -229 -3 -261 -5 -272 -20 -11 -16
-13 -16 -31 1 -11 9 -22 14 -26 11 -12 -12 -134 52 -180 96 -61 56 -121 157
-141 233 -14 53 -32 235 -20 194 11 -36 21 -15 12 25 -5 24 -10 64 -11 90 l-2
48 81 0 82 0 -19 -37 c-62 -120 -66 -279 -11 -394 32 -67 132 -213 132 -193 0
7 -7 17 -15 24 -8 7 -15 17 -15 23 0 6 12 -1 28 -15 34 -32 72 -52 72 -39 0 6
-6 14 -14 18 -26 15 -95 107 -120 159 -53 113 -58 250 -14 380 l24 69 58 3
c32 2 56 -1 54 -5 -2 -4 -18 -36 -36 -70 -61 -118 -65 -275 -10 -380 65 -125
101 -166 54 -62 -45 99 -54 211 -24 324 l10 40 20 -53 c27 -71 112 -162 180
-193 46 -20 74 -24 219 -29 117 -3 171 -9 182 -18 14 -12 19 -9 37 20 35 58
22 121 -33 162 -25 19 -46 22 -190 26 -148 5 -167 8 -217 31 -68 32 -133 97
-165 166 -33 68 -35 197 -5 267 22 51 86 126 135 156 30 19 33 23 25 51 -5 17
-12 70 -16 117 -8 90 -21 85 -23 -7 -1 -27 -5 -41 -10 -35 -11 10 -31 136 -31
189 0 64 -17 28 -23 -50 -12 -135 -45 -216 -48 -117 -1 26 -5 14 -13 -38 l-12
-75 -12 70 c-32 188 -33 196 -5 240 15 22 63 76 107 121 323 322 804 373 1191
126 145 -93 297 -275 361 -433 23 -56 26 -74 21 -141 -6 -89 -21 -129 -24 -65
-1 23 -8 83 -16 132 l-13 90 -8 -68 c-4 -38 -10 -67 -12 -64 -3 2 -11 55 -20
118 -8 62 -16 114 -18 116 -2 2 -6 -31 -10 -74 -4 -43 -11 -95 -15 -115 -5
-21 -5 -38 -1 -38 10 0 -54 -161 -75 -188 -1 -1 -257 -2 -569 -2 -541 0 -569
-1 -611 -19 -76 -33 -107 -120 -70 -191 l16 -30 672 0 672 0 33 -49 c63 -92
86 -165 86 -271 -1 -72 -6 -110 -23 -159 -24 -68 -23 -86 2 -48 71 109 95 265
58 375 -12 35 -33 81 -46 103 -14 21 -25 41 -25 44 0 3 26 5 57 3 l57 -3 23
-67 c13 -37 26 -94 30 -127 6 -63 -2 -82 -81 -203 -10 -16 -16 -28 -12 -28 3
0 24 29 47 65 23 36 43 64 46 62 6 -7 -18 -96 -39 -147 -21 -48 -68 -110 -132
-172 -49 -47 -24 -37 60 25 70 51 136 143 159 221 18 59 21 187 6 243 -9 31
-7 51 9 103 15 49 20 93 19 180 0 74 -4 108 -9 95 -5 -11 -9 -18 -10 -15 0 3
-7 59 -14 125 -16 137 -50 237 -118 351 -175 290 -440 486 -753 553 -111 24
-325 27 -440 6z m-605 -712 c-6 -47 -18 -104 -25 -127 -9 -25 -11 -42 -5 -44
13 -5 13 -39 1 -47 -5 -3 -12 5 -14 17 -2 13 -5 4 -6 -19 0 -23 -5 -44 -10
-47 -12 -8 -20 25 -27 111 -8 81 4 123 60 223 37 67 42 54 26 -67z m109 -110
c0 -5 -4 -17 -9 -28 -8 -18 -9 -17 -9 8 -1 15 4 27 9 27 6 0 10 -3 9 -7z
m-169 -183 c0 -5 -2 -10 -4 -10 -3 0 -8 5 -11 10 -3 6 -1 10 4 10 6 0 11 -4
11 -10z m1974 -297 c-4 -21 -7 -39 -8 -40 -1 -1 -11 16 -23 38 l-21 39 29 0
c29 0 30 -1 23 -37z m-1064 -723 c12 -8 9 -10 -13 -10 -16 0 -26 4 -22 10 8
12 16 12 35 0z"/>
<path d="M950 1735 c-64 -113 -65 -115 -82 -95 -17 21 -18 20 -48 -39 l-30
-61 281 0 c154 0 279 3 277 8 -13 29 -74 132 -79 132 -3 0 -13 -25 -23 -56
-17 -53 -18 -55 -36 -39 -10 9 -23 14 -28 11 -5 -3 -43 53 -83 124 -41 71 -76
130 -79 130 -3 0 -34 -52 -70 -115z"/>
<path d="M1718 1716 c-4 -49 -13 -77 -37 -116 -17 -27 -31 -52 -31 -55 0 -3
25 -5 56 -5 54 0 56 1 50 23 -3 12 -11 65 -17 117 -6 52 -12 96 -13 98 -2 1
-6 -27 -8 -62z"/>
<path d="M1911 1750 c0 -3 -6 -44 -11 -90 -6 -47 -13 -93 -16 -102 -4 -15 1
-18 26 -18 31 0 31 0 25 43 -3 23 -10 71 -14 107 -5 36 -9 63 -10 60z"/>
<path d="M1780 1653 c0 -11 -3 -41 -6 -67 -6 -37 -4 -46 9 -46 13 0 14 11 10
63 -6 61 -13 90 -13 50z"/>
<path d="M1967 1601 c-8 -53 -6 -66 10 -60 4 2 6 29 3 59 l-5 55 -8 -54z"/>
<path d="M1304 863 c3 -10 10 -40 15 -68 5 -27 18 -69 29 -93 18 -39 20 -41
26 -20 9 35 7 91 -5 148 -10 46 -13 50 -41 50 -23 0 -28 -4 -24 -17z"/>
<path d="M1593 873 l-133 -4 0 -95 0 -95 131 3 130 3 40 89 c21 48 39 92 39
97 0 5 -17 8 -37 7 -21 -1 -98 -4 -170 -5z"/>
<path d="M2181 617 c-13 -21 -12 -21 5 -5 10 10 16 20 13 22 -3 3 -11 -5 -18
-17z"/>
<path d="M1514 158 c9 -5 23 -5 32 0 12 6 7 9 -16 9 -23 0 -28 -3 -16 -9z"/>
</g>
</svg>
